<?xml version="1.0" encoding="UTF-8" standalone="no"?>
<!-- Created with Inkscape (http://www.inkscape.org/) -->

<svg
   width="40.531918mm"
   height="15.875mm"
   viewBox="0 0 40.531918 15.875"
   version="1.1"
   id="svg1"
   inkscape:version="1.3 (0e150ed6c4, 2023-07-21)"
   sodipodi:docname="logo.svg"
   xmlns:inkscape="http://www.inkscape.org/namespaces/inkscape"
   xmlns:sodipodi="http://sodipodi.sourceforge.net/DTD/sodipodi-0.dtd"
   xmlns="http://www.w3.org/2000/svg"
   xmlns:svg="http://www.w3.org/2000/svg">
  <sodipodi:namedview
     id="namedview1"
     pagecolor="#ffffff"
     bordercolor="#000000"
     borderopacity="0.25"
     inkscape:showpageshadow="2"
     inkscape:pageopacity="0.0"
     inkscape:pagecheckerboard="0"
     inkscape:deskcolor="#d1d1d1"
     inkscape:document-units="mm"
     inkscape:zoom="0.45344416"
     inkscape:cx="500.6129"
     inkscape:cy="303.23469"
     inkscape:window-width="1366"
     inkscape:window-height="705"
     inkscape:window-x="-8"
     inkscape:window-y="-8"
     inkscape:window-maximized="1"
     inkscape:current-layer="layer1" />
  <defs
     id="defs1" />
  <g
     inkscape:label="Capa 1"
     inkscape:groupmode="layer"
     id="layer1"
     transform="translate(27.516667,-67.997943)">
    <g
       id="g7"
       transform="matrix(1.3347201,0,0,1.3341659,-125.17338,-118.09213)"
       inkscape:export-filename="g7.png"
       inkscape:export-xdpi="96"
       inkscape:export-ydpi="96">
      <path
         style="font-size:3.1828px;font-family:'Louis George Café Light';-inkscape-font-specification:'Louis George Café Light, ';letter-spacing:1.06092px;fill:#292828;fill-opacity:1;stroke-width:0.0514783;paint-order:stroke fill markers"
         d="m 75.90004,149.14155 h 0.134224 l 0.0018,0.002 v 2.08691 h 1.122592 l 0.0018,0.002 v 0.11611 l -0.0018,0.002 h -1.258559 l -0.0018,-0.002 v -2.20452 z m 3.776821,0 h 0.01221 q 0.432303,0 0.777446,0.31061 0.113307,0.11612 0.167344,0.20056 0.172573,0.28197 0.172573,0.56696 v 0.0452 q 0,0.34682 -0.233584,0.65743 -0.0488,0.0648 -0.174315,0.17643 l -0.101108,0.0708 q -0.285877,0.17944 -0.617076,0.17944 -0.428817,0 -0.765245,-0.29404 -0.360833,-0.34229 -0.360833,-0.80823 v -0.008 q 0,-0.4584 0.362575,-0.80672 0.338172,-0.28951 0.760016,-0.28951 z m -0.984881,1.10527 q 0,0.40713 0.312024,0.71776 0.170829,0.14474 0.275418,0.17942 0.0523,0.0286 0.172572,0.0588 0.113305,0.0257 0.202207,0.0257 h 0.05228 q 0.285877,0 0.564783,-0.1915 0.149911,-0.12516 0.195233,-0.19301 0.203949,-0.27444 0.203949,-0.59108 v -0.015 q 0,-0.37848 -0.280647,-0.68156 -0.306795,-0.29554 -0.712951,-0.29554 -0.409641,0 -0.72341,0.31514 -0.261473,0.29705 -0.261473,0.671 z m 4.742528,-1.10527 h 0.007 q 0.444505,0 0.786163,0.31364 0.128993,0.12817 0.202207,0.26236 v 0.005 q -0.11156,0.0498 -0.125509,0.0498 -0.05055,-0.1161 -0.21615,-0.27142 -0.291107,-0.23975 -0.653683,-0.23975 -0.409641,0 -0.72341,0.31515 -0.261474,0.29706 -0.261474,0.671 0,0.40713 0.312026,0.71775 0.170828,0.14476 0.275419,0.17944 0.05229,0.0286 0.172572,0.0588 0.113304,0.0257 0.202205,0.0257 h 0.0523 q 0.252758,0 0.505516,-0.1523 0.134224,-0.086 0.244042,-0.21714 0.141195,-0.18245 0.186517,-0.38601 0.007,-0.015 0.02092,-0.10556 h -0.761758 l -0.0053,-0.003 v -0.11308 l 0.0018,-0.002 h 0.909927 l 0.0018,0.002 q 0,0.34682 -0.22661,0.65743 -0.219637,0.2865 -0.596159,0.39959 -0.153398,0.0408 -0.306796,0.0408 -0.428816,0 -0.765245,-0.29404 -0.360833,-0.34228 -0.360833,-0.80821 v -0.008 q 0,-0.45841 0.362576,-0.80672 0.338172,-0.2895 0.760018,-0.2895 z m 2.948821,0 v 2.20602 l -0.0018,0.002 h -0.134244 l -0.0018,-0.002 v -2.20602 z m 2.399729,-0.0316 h 0.02092 q 0.217894,0 0.407898,0.10857 0.04358,0.0242 0.106332,0.0754 0.06799,0.0618 0.08542,0.086 0.05055,0.0588 0.07147,0.098 l -0.125509,0.0498 q -0.0279,-0.0512 -0.08541,-0.10858 -0.04533,-0.0467 -0.0889,-0.0754 -0.165599,-0.11611 -0.380008,-0.11611 h -0.0034 q -0.223124,0 -0.386981,0.10857 -0.05926,0.0422 -0.09588,0.0844 -0.109821,0.13118 -0.109821,0.28801 0,0.1538 0.108082,0.24276 0.05752,0.0467 0.104594,0.0694 0.101108,0.0543 0.306795,0.11007 0.12725,0.0332 0.320739,0.0724 0.08368,0.0212 0.14294,0.0482 0.06449,0.0271 0.139452,0.0814 0.06101,0.0512 0.07495,0.0694 0.03835,0.0422 0.06624,0.0904 0.06624,0.12364 0.06624,0.2488 v 0.0196 q 0,0.14928 -0.0889,0.29856 -0.113305,0.17794 -0.343402,0.26388 -0.155141,0.0558 -0.320741,0.0558 -0.273674,0 -0.496798,-0.14777 -0.03312,-0.0226 -0.09239,-0.0724 -0.07495,-0.074 -0.108081,-0.12215 -0.02964,-0.0377 -0.06449,-0.098 l -0.01743,-0.0378 q 0.122021,-0.0452 0.12725,-0.0452 0.03312,0.0694 0.08542,0.13721 0.02964,0.0392 0.09064,0.0949 0.05926,0.0498 0.09064,0.0663 0.176059,0.10555 0.385238,0.10555 0.205692,0 0.380007,-0.10098 0.03312,-0.018 0.08716,-0.0648 0.08368,-0.0829 0.118535,-0.17793 0.02964,-0.0814 0.02964,-0.16436 v -0.003 q 0,-0.1719 -0.127251,-0.29856 -0.05578,-0.0482 -0.08019,-0.0588 -0.0401,-0.0257 -0.08715,-0.0438 -0.04183,-0.0166 -0.104594,-0.0316 -0.385238,-0.0769 -0.573499,-0.1568 -0.06972,-0.0286 -0.135965,-0.0694 -0.221382,-0.13873 -0.221382,-0.37697 v -0.0105 q 0,-0.17793 0.123765,-0.33777 0.02441,-0.0286 0.06101,-0.0648 0.06101,-0.0528 0.08715,-0.0663 0.04009,-0.0257 0.0889,-0.0482 0.06972,-0.0316 0.141197,-0.0498 0.115048,-0.0257 0.219637,-0.0257 z m 2.092933,0.0316 h 1.579299 l 0.0018,0.002 v 0.11611 h -0.72344 v 2.08841 l -0.0018,0.002 h -0.134171 v -2.08991 h -0.723431 v -0.11611 z m 3.2347,0 v 2.20602 l -0.0018,0.002 h -0.134223 l -0.0018,-0.002 v -2.20602 z m 2.764048,0 h 0.0088 q 0.441018,0 0.78442,0.33022 0.134222,0.14778 0.169085,0.22618 v 0.003 l -0.120278,0.0482 h -0.0018 q 0,-0.0105 -0.09413,-0.13721 -0.312025,-0.35134 -0.746071,-0.35134 -0.406155,0 -0.714693,0.31967 -0.252758,0.29553 -0.252758,0.66648 0,0.40865 0.305052,0.71473 0.128993,0.11611 0.212665,0.15381 0.217895,0.11309 0.427073,0.11309 h 0.05055 q 0.2545,0 0.505514,-0.15983 0.123766,-0.086 0.20395,-0.17944 0.06101,-0.0769 0.106332,-0.1538 h 0.0034 l 0.118534,0.0482 v 0.003 q -0.01918,0.0498 -0.123765,0.17944 -0.167342,0.18095 -0.325969,0.25634 -0.242299,0.12666 -0.514232,0.12666 -0.414871,0 -0.744327,-0.2865 -0.183031,-0.1734 -0.268446,-0.36942 -0.09413,-0.22015 -0.09413,-0.44031 v -0.015 q 0,-0.45087 0.345144,-0.79466 0.332943,-0.30157 0.760015,-0.30157 z m 3.180661,-0.0316 h 0.0209 q 0.21789,0 0.4079,0.10857 0.0436,0.0242 0.10634,0.0754 0.068,0.0618 0.0854,0.086 0.0506,0.0588 0.0715,0.098 l -0.1255,0.0498 q -0.0279,-0.0512 -0.0854,-0.10858 -0.0453,-0.0467 -0.0889,-0.0754 -0.1656,-0.11611 -0.38,-0.11611 h -0.003 q -0.223122,0 -0.386982,0.10857 -0.0593,0.0422 -0.0959,0.0844 -0.109819,0.13118 -0.109819,0.28801 0,0.1538 0.108069,0.24276 0.0575,0.0467 0.1046,0.0694 0.1011,0.0543 0.306791,0.11007 0.127251,0.0332 0.320741,0.0724 0.0837,0.0212 0.14294,0.0482 0.0645,0.0271 0.13945,0.0814 0.061,0.0512 0.075,0.0694 0.0384,0.0422 0.0662,0.0904 0.0662,0.12364 0.0662,0.2488 v 0.0196 q 0,0.14928 -0.0889,0.29856 -0.1133,0.17794 -0.3434,0.26388 -0.15514,0.0558 -0.32074,0.0558 -0.273672,0 -0.496802,-0.14777 -0.0331,-0.0226 -0.09238,-0.0724 -0.07496,-0.074 -0.10807,-0.12215 -0.02964,-0.0377 -0.06449,-0.098 l -0.01743,-0.0378 q 0.122021,-0.0452 0.127251,-0.0452 0.03312,0.0694 0.08542,0.13721 0.02964,0.0392 0.09064,0.0949 0.0593,0.0498 0.0906,0.0663 0.17606,0.10555 0.385241,0.10555 0.20569,0 0.38,-0.10098 0.0331,-0.018 0.0872,-0.0648 0.0837,-0.0829 0.11854,-0.17793 0.0296,-0.0814 0.0296,-0.16436 v -0.003 q 0,-0.1719 -0.12725,-0.29856 -0.0558,-0.0482 -0.0802,-0.0588 -0.0401,-0.0257 -0.0871,-0.0438 -0.0418,-0.0166 -0.10459,-0.0316 -0.385241,-0.0769 -0.573501,-0.1568 -0.0697,-0.0286 -0.13597,-0.0694 -0.221377,-0.13873 -0.221377,-0.37697 v -0.0105 q 0,-0.17793 0.123763,-0.33777 0.02441,-0.0286 0.06101,-0.0648 0.061,-0.0528 0.0872,-0.0663 0.0401,-0.0257 0.0889,-0.0482 0.0697,-0.0316 0.1412,-0.0498 0.11505,-0.0257 0.219645,-0.0257 z"
         id="path3"
         aria-label="LOGISTICS" />
      <g
         id="g6">
        <path
           d="m 81.751275,139.48062 v 7.35397 h -2.044507 v -4.05772 l -1.387342,4.05772 h -1.710708 l -1.397774,-4.08902 v 4.08902 h -2.044508 v -7.35397 h 2.472189 l 1.846305,4.77747 1.804599,-4.77747 z"
           id="path4"
           style="font-weight:800;font-size:9.77897px;font-family:Poppins;-inkscape-font-specification:'Poppins Ultra-Bold';letter-spacing:-0.60171px;fill:#e11702;fill-opacity:1;stroke-width:0.161724" />
        <path
           d="m 93.744485,146.83459 -2.305295,-3.22323 v 3.22323 h -2.044496 v -7.35397 h 2.044496 v 3.17107 l 2.284429,-3.17107 h 2.357444 l -2.701677,3.56746 2.837277,3.78651 z m 7.233685,-1.19958 h -2.607803 l -0.396381,1.19958 h -2.14881 l 2.680799,-7.35397 h 2.357445 l 2.67037,7.35397 h -2.15924 z m -0.51113,-1.56468 -0.792778,-2.37831 -0.782333,2.37831 z"
           id="path5"
           style="font-weight:800;font-size:9.77897px;font-family:Poppins;-inkscape-font-specification:'Poppins Ultra-Bold';letter-spacing:-0.60171px;fill:#e11702;fill-opacity:1;stroke-width:0.161724" />
        <path
           id="path6"
           style="fill:#244b93;fill-opacity:1;stroke:none;stroke-width:0.60101;stroke-linecap:butt;stroke-dasharray:none;paint-order:stroke fill markers"
           d="m 85.576776,139.48046 v 1.35271 h -2.007568 v -1.35271 z m 0,1.54565 v 4.94286 h -1.781568 v 0.4013 c 0,0.36507 -0.07254,0.46413 -0.352787,0.46413 h -0.651006 c -0.367953,0 -0.404148,-0.1156 -0.385299,-0.34121 v -1.89512 c 0,-0.32681 0.102617,-0.41894 0.504919,-0.41894 v -2.49982 c -5.72e-4,-0.25796 0.05355,-0.6532 0.579898,-0.6532 z m -0.103576,0.48507 h -1.822914 c -0.245073,0 -0.267345,0.099 -0.267345,0.33405 v 0.84283 H 85.4732 Z m 0.103576,-2.03072 v 1.35271 h 2.007568 v -1.35271 z m 0,1.54565 v 4.94286 h 1.781569 v 0.4013 c 0,0.36507 0.07254,0.46413 0.352787,0.46413 h 0.651002 c 0.367956,0 0.404149,-0.1156 0.385301,-0.34121 v -1.89512 c 0,-0.32681 -0.102615,-0.41894 -0.504918,-0.41894 v -2.49982 c 4.98e-4,-0.25796 -0.05355,-0.6532 -0.579896,-0.6532 z m 0.103575,0.48507 h 1.822916 c 0.245073,0 0.267343,0.099 0.267343,0.33405 v 0.84283 h -2.090259 z" />
      </g>
    </g>
  </g>
</svg>
